<?xml version="1.0" encoding="UTF-8"?>
<svg width="340px" height="340px" viewBox="0 0 340 340" version="1.1" xmlns="http://www.w3.org/2000/svg" xmlns:xlink="http://www.w3.org/1999/xlink">
    <title>file-placeholder</title>
    <desc>Illustration for uploaded file type</desc>
    <g id="file-placeholder" stroke="none" stroke-width="1" fill="none" fill-rule="evenodd">
        <g id="Documents" transform="translate(2.000000, 2.000000)">
            <line x1="0" y1="336" x2="336" y2="336" id="Stroke-1" stroke="#2B3554" stroke-width="4" stroke-linecap="round" stroke-linejoin="round"></line>
            <path d="M248.336,0 L48.285,0 C43.709,0 40,3.709 40,8.285 L40,326.868 C40,331.443 43.709,335.152 48.285,335.152 L287.387,335.152 C291.963,335.152 295.672,331.443 295.672,326.868 L295.672,47.335 L248.336,0 Z" id="Fill-11" fill="#F0F0F0"></path>
            <path d="M54.8643,324.54 C50.2893,324.54 46.5793,320.831 46.5793,316.255 L46.5793,0.136 C42.6573,0.79 39.6603,4.175 39.6603,8.283 L39.6603,326.866 C39.6603,331.442 43.3693,335.151 47.9453,335.151 L287.0473,335.151 C291.6233,335.151 295.3323,331.442 295.3323,326.866 L295.3323,324.402 C294.8853,324.477 294.4343,324.54 293.9673,324.54 L54.8643,324.54 Z" id="Fill-15" fill="#D7D7D7"></path>
            <path d="M295.3321,52.7608 L253.9151,52.7608 C247.6481,52.7608 242.5691,47.6808 242.5691,41.4148 L242.5691,-0.0012 L247.9961,-0.0012 L295.3321,47.3338 L295.3321,52.7608 Z" id="Fill-17" fill="#F5F5F5"></path>
            <path d="M247.9962,-0.0014 L47.9452,-0.0014 C43.3692,-0.0014 39.6602,3.7076 39.6602,8.2836 L39.6602,326.8666 C39.6602,331.4416 43.3692,335.1506 47.9452,335.1506 L287.0472,335.1506 C291.6232,335.1506 295.3322,331.4416 295.3322,326.8666 L295.3322,47.3336 L247.9962,-0.0014 Z" id="Stroke-19" stroke="#2B3554" stroke-width="4" stroke-linecap="round" stroke-linejoin="round"></path>
            <path d="M295.3321,47.2456 L258.2441,47.2456 C252.6331,47.2456 248.0841,42.6966 248.0841,37.0856 L248.0841,-0.0014 C263.8331,15.7476 279.5831,31.4966 295.3321,47.2456" id="Fill-57" fill="#FFFFFF"></path>
            <path d="M295.3321,47.2456 L258.2441,47.2456 C252.6331,47.2456 248.0841,42.6966 248.0841,37.0856 L248.0841,-0.0014 C263.8331,15.7476 279.5831,31.4966 295.3321,47.2456 Z" id="Stroke-59" stroke="#2B3554" stroke-width="4" stroke-linecap="round" stroke-linejoin="round"></path>
        </g>
    </g>
</svg>
